<svg width="64" height="16" viewBox="0 0 64 16" fill="none" xmlns="http://www.w3.org/2000/svg" shape-rendering="crispEdges">
<g transform="translate(0 0)">
<rect x="4" y="3" width="9" height="11" fill="#E7ECF4"/>
<rect x="5" y="4" width="7" height="4" fill="#12284B"/>
<rect x="6" y="5" width="5" height="1" fill="#1BEBC2"/>
<rect x="6" y="10" width="1" height="1" fill="#1B73FF"/>
<rect x="8" y="10" width="1" height="1" fill="#1B73FF"/>
<rect x="10" y="10" width="1" height="1" fill="#1B73FF"/>
<rect x="6" y="0" width="5" height="3" fill="#FFD400"/>
<rect x="7" y="1" width="3" height="1" fill="#1B73FF"/>
</g>
<g transform="translate(16 0)">
<rect x="4" y="3" width="9" height="11" fill="#E7ECF4"/>
<rect x="5" y="4" width="7" height="4" fill="#12284B"/>
<rect x="6" y="5" width="5" height="1" fill="#1BEBC2"/>
<rect x="6" y="10" width="1" height="1" fill="#1B73FF"/>
<rect x="8" y="10" width="1" height="1" fill="#1B73FF"/>
<rect x="10" y="10" width="1" height="1" fill="#1B73FF"/>
<rect x="6" y="0" width="5" height="4" fill="#FFD400"/>
<rect x="7" y="1" width="3" height="2" fill="#1B73FF"/>
</g>
<g transform="translate(32 0)">
<rect x="4" y="3" width="9" height="11" fill="#E7ECF4"/>
<rect x="5" y="4" width="7" height="4" fill="#12284B"/>
<rect x="6" y="5" width="5" height="1" fill="#1BEBC2"/>
<rect x="6" y="10" width="1" height="1" fill="#1B73FF"/>
<rect x="8" y="10" width="1" height="1" fill="#1B73FF"/>
<rect x="10" y="10" width="1" height="1" fill="#1B73FF"/>
<rect x="6" y="0" width="5" height="5" fill="#FFD400"/>
<rect x="7" y="1" width="3" height="3" fill="#1B73FF"/>
</g>
<g transform="translate(48 0)">
<rect x="4" y="3" width="9" height="11" fill="#E7ECF4"/>
<rect x="5" y="4" width="7" height="4" fill="#12284B"/>
<rect x="6" y="5" width="5" height="1" fill="#1BEBC2"/>
<rect x="6" y="10" width="1" height="1" fill="#1B73FF"/>
<rect x="8" y="10" width="1" height="1" fill="#1B73FF"/>
<rect x="10" y="10" width="1" height="1" fill="#1B73FF"/>
<rect x="6" y="0" width="5" height="4" fill="#FFD400"/>
<rect x="7" y="1" width="3" height="2" fill="#1B73FF"/>
</g>
</svg>
