<svg width="32" height="16" viewBox="0 0 32 16" fill="none" xmlns="http://www.w3.org/2000/svg" shape-rendering="crispEdges">
<g transform="translate(0 0)">
<rect x="2" y="4" width="12" height="8" fill="#8B1E1E"/>
<rect x="3" y="5" width="10" height="6" fill="#E53935"/>
<rect x="4" y="6" width="8" height="4" fill="#FF8A80"/>
<rect x="7" y="7" width="2" height="2" fill="#B71C1C"/>
<rect x="1" y="7" width="2" height="2" fill="#FFD400"/>
<rect x="2" y="6" width="1" height="1" fill="#FFD400"/>
<rect x="2" y="9" width="1" height="1" fill="#FFD400"/>
<rect x="14" y="4" width="1" height="2" fill="#FFB3B0"/>
<rect x="14" y="10" width="1" height="2" fill="#FFB3B0"/>
</g>
<g transform="translate(16 0)">
<rect x="2" y="3" width="12" height="8" fill="#8B1E1E"/>
<rect x="3" y="4" width="10" height="6" fill="#E53935"/>
<rect x="4" y="5" width="8" height="4" fill="#FF8A80"/>
<rect x="7" y="6" width="2" height="2" fill="#B71C1C"/>
<rect x="1" y="6" width="2" height="2" fill="#FFD400"/>
<rect x="2" y="5" width="1" height="1" fill="#FFD400"/>
<rect x="2" y="8" width="1" height="1" fill="#FFD400"/>
<rect x="14" y="3" width="1" height="2" fill="#FFB3B0"/>
<rect x="14" y="9" width="1" height="2" fill="#FFB3B0"/>
</g>
</svg>
