<svg width="32" height="16" viewBox="0 0 32 16" fill="none" xmlns="http://www.w3.org/2000/svg" shape-rendering="crispEdges">
<g transform="translate(0 0)">
<rect x="2" y="3" width="12" height="9" fill="#0B6B3A"/>
<rect x="3" y="4" width="10" height="7" fill="#22C55E"/>
<rect x="4" y="5" width="8" height="5" fill="#A7F3D0"/>
<rect x="7" y="6" width="2" height="3" fill="#0F8F4D"/>
<rect x="6" y="2" width="4" height="1" fill="#E9D66B"/>
<rect x="5" y="1" width="1" height="1" fill="#E9D66B"/>
<rect x="10" y="1" width="1" height="1" fill="#E9D66B"/>
<rect x="2" y="12" width="2" height="1" fill="#66E39E"/>
<rect x="12" y="12" width="2" height="1" fill="#66E39E"/>
</g>
<g transform="translate(16 0)">
<rect x="1" y="4" width="12" height="9" fill="#0B6B3A"/>
<rect x="2" y="5" width="10" height="7" fill="#22C55E"/>
<rect x="3" y="6" width="8" height="5" fill="#A7F3D0"/>
<rect x="6" y="7" width="2" height="3" fill="#0F8F4D"/>
<rect x="5" y="2" width="4" height="1" fill="#E9D66B"/>
<rect x="4" y="1" width="1" height="1" fill="#E9D66B"/>
<rect x="9" y="1" width="1" height="1" fill="#E9D66B"/>
<rect x="1" y="13" width="2" height="1" fill="#66E39E"/>
<rect x="11" y="13" width="2" height="1" fill="#66E39E"/>
</g>
</svg>
