<svg width="32" height="16" viewBox="0 0 32 16" fill="none" xmlns="http://www.w3.org/2000/svg" shape-rendering="crispEdges">
<g transform="translate(0 0)">
<rect x="1" y="4" width="11" height="8" fill="#0B6B3A"/>
<rect x="2" y="5" width="9" height="6" fill="#22C55E"/>
<rect x="3" y="6" width="7" height="4" fill="#A7F3D0"/>
<rect x="5" y="7" width="2" height="2" fill="#0F8F4D"/>
<rect x="12" y="7" width="2" height="2" fill="#E9D66B"/>
<rect x="12" y="6" width="1" height="1" fill="#E9D66B"/>
<rect x="12" y="9" width="1" height="1" fill="#E9D66B"/>
<rect x="0" y="4" width="1" height="2" fill="#66E39E"/>
<rect x="0" y="10" width="1" height="2" fill="#66E39E"/>
</g>
<g transform="translate(16 0)">
<rect x="0" y="3" width="11" height="8" fill="#0B6B3A"/>
<rect x="1" y="4" width="9" height="6" fill="#22C55E"/>
<rect x="2" y="5" width="7" height="4" fill="#A7F3D0"/>
<rect x="4" y="6" width="2" height="2" fill="#0F8F4D"/>
<rect x="11" y="6" width="2" height="2" fill="#E9D66B"/>
<rect x="11" y="5" width="1" height="1" fill="#E9D66B"/>
<rect x="11" y="8" width="1" height="1" fill="#E9D66B"/>
<rect x="0" y="2" width="1" height="2" fill="#66E39E"/>
<rect x="0" y="8" width="1" height="2" fill="#66E39E"/>
</g>
</svg>
